<svg width="120" height="108" viewBox="0 0 120 108" xmlns="http://www.w3.org/2000/svg">
  <defs>
    <linearGradient id="g" x1="0" y1="0" x2="0" y2="1">
      <stop offset="0" stop-color="#7b3fe4"/>
      <stop offset="0.55" stop-color="#6a2bd0"/>
      <stop offset="1" stop-color="#4c1d95"/>
    </linearGradient>
  </defs>
  <g fill="url(#g)">
    <path d="M60 2 C61 10 63 12 71 13 C63 14 61 16 60 24 C59 16 57 14 49 13 C57 12 59 10 60 2 Z"/>
    <circle cx="60" cy="34" r="9"/>
    <path d="M60 47 C48 47 44 60 41 70 C40 74 44 76 46 72 C50 63 54 60 60 60 C66 60 70 63 74 72 C76 76 80 74 79 70 C76 60 72 47 60 47 Z"/>
    <circle cx="34" cy="50" r="7.5"/>
    <path d="M34 61 C24 61 21 73 19 82 C18 86 22 88 24 84 C27 76 30 73 34 73 C38 73 41 76 44 84 C46 88 50 86 49 82 C46 73 43 61 34 61 Z"/>
    <circle cx="86" cy="50" r="7.5"/>
    <path d="M86 61 C76 61 73 73 71 82 C70 86 74 88 76 84 C79 76 82 73 86 73 C90 73 93 76 96 84 C98 88 102 86 101 82 C98 73 95 61 86 61 Z"/>
  </g>
  <path d="M14 96 C40 84 80 84 106 96" fill="none" stroke="url(#g)" stroke-width="6.5" stroke-linecap="round"/>
</svg>
